<svg width="32" height="32" viewBox="0 0 32 32" fill="none" xmlns="http://www.w3.org/2000/svg">
<g id="Frame">
<path id="Vector" d="M26.3429 10.9141C26.3429 11.1427 26.3429 11.3713 26.3429 11.5713C26.3429 18.5141 21.0286 26.5427 11.3143 26.5427C8.28573 26.5713 5.54288 25.7141 3.17145 24.1998C3.57145 24.257 4.00002 24.257 4.42859 24.257C6.9143 24.257 9.20002 23.4284 11 21.9998C8.68573 21.9427 6.74288 20.4284 6.05716 18.3427C6.37145 18.3998 6.74288 18.3998 7.02859 18.3998C7.48573 18.3998 7.97145 18.3427 8.40002 18.1998C6.00002 17.7427 4.14288 15.5713 4.14288 13.057C4.14288 12.9998 4.14288 12.9998 4.14288 12.9998C4.85716 13.3998 5.68573 13.6284 6.54288 13.657C5.1143 12.7141 4.17145 11.1141 4.17145 9.25698C4.17145 8.28555 4.45716 7.39983 4.88573 6.6284C7.48573 9.79983 11.3714 11.9141 15.7429 12.1141C15.6857 11.7141 15.6286 11.3141 15.6286 10.8855C15.6572 8.0284 18 5.68555 20.9143 5.68555C22.4572 5.68555 23.8 6.31412 24.7714 7.31412C26 7.08555 27.0857 6.65698 28.1143 6.0284C27.7143 7.25698 26.8857 8.28555 25.8 8.91412C26.8572 8.79983 27.8857 8.51412 28.8286 8.08555C28.2572 9.2284 27.3429 10.1427 26.3429 10.9141Z" fill="black"/>
</g>
</svg>
